<?xml version="1.0" encoding="utf-8"?>
<!-- Generator: Adobe Illustrator 25.0.0, SVG Export Plug-In . SVG Version: 6.00 Build 0)  -->
<svg version="1.1" id="Layer_1" xmlns="http://www.w3.org/2000/svg" xmlns:xlink="http://www.w3.org/1999/xlink" x="0px" y="0px"
	 viewBox="0 0 1080 1080" style="enable-background:new 0 0 1080 1080;" xml:space="preserve">
<style type="text/css">
	.st0{display:none;}
	.st1{display:inline;}
	.st2{display:inline;fill:none;stroke:#000000;stroke-miterlimit:10;}
	.st3{display:inline;fill:none;stroke:#000000;stroke-width:1.1934;stroke-miterlimit:10;}
	.st4{display:inline;fill:none;stroke:#000000;stroke-width:1.1516;stroke-miterlimit:10;}
	.st5{display:inline;fill:none;stroke:#000000;stroke-width:1.1304;stroke-miterlimit:10;}
	.st6{fill:#FFFFFF;}
</style>
<g class="st0">
	<circle class="st1" cx="242.82" cy="450.2" r="13.07"/>
	<circle class="st1" cx="242.82" cy="450.2" r="35.39"/>
</g>
<g class="st0">
	<circle class="st2" cx="596.04" cy="382.92" r="63.2"/>
	<circle class="st2" cx="517.82" cy="451.15" r="34.43"/>
	<circle class="st2" cx="517.82" cy="451.15" r="14.01"/>
	<polygon class="st2" points="531.83,451.15 552.25,451.15 552.25,382.92 532.84,382.92 	"/>
	<path class="st2" d="M467.76,425.31c0,14.27,11.57,25.84,25.84,25.84c14.27,0,25.84-11.57,25.84-25.84"/>
	<path class="st2" d="M493.6,392.6L493.6,392.6c-5.14,0-9.35,4.21-9.35,9.35v29.54c0,5.14,4.21,9.35,9.35,9.35l0,0
		c5.14,0,9.35-4.21,9.35-9.35v-29.54C502.95,396.81,498.74,392.6,493.6,392.6z"/>
</g>
<g class="st0">
	<circle class="st3" cx="846.74" cy="457.14" r="41.09"/>
	<circle class="st2" cx="846.74" cy="457.14" r="14.01"/>
	<polygon class="st4" points="805.65,457.14 832.73,457.14 832.73,388.91 806.98,388.91 	"/>
	<path class="st2" d="M793.94,431.3c0,14.27,11.57,25.84,25.84,25.84c14.27,0,25.84-11.57,25.84-25.84"/>
	<path class="st2" d="M819.78,398.59L819.78,398.59c-5.14,0-9.35,4.21-9.35,9.35v29.54c0,5.14,4.21,9.35,9.35,9.35l0,0
		c5.14,0,9.35-4.21,9.35-9.35v-29.54C829.13,402.8,824.92,398.59,819.78,398.59z"/>
	<rect x="860.75" y="369.65" class="st2" width="27.08" height="87.49"/>
	<circle class="st5" cx="924.26" cy="388.91" r="63.51"/>
</g>
<g class="st0">
	<g class="st1">
		<path d="M633.87,33.98c-28.36,0-52.38,18.59-60.53,44.25c-1.94,6.08-2.98,12.55-2.98,19.26v68.23c0,7.74-6.27,14.01-14.01,14.01
			s-14.01-6.27-14.01-14.01h-27.08c0,22.69,18.39,41.09,41.09,41.09c22.69,0,41.09-18.4,41.09-41.09v-16.21
			c10.31,7.24,22.87,11.49,36.43,11.49c35.08,0,63.51-28.43,63.51-63.51C697.38,62.42,668.95,33.98,633.87,33.98z"/>
		<path d="M529.39,171.22c-12.63,0-23.22-8.9-25.83-20.75c-0.64-2.92,1.54-5.69,4.53-5.69l0,0c2.2,0,4.07,1.56,4.54,3.71
			c1.7,7.68,8.57,13.45,16.76,13.45s15.06-5.77,16.76-13.45c0.48-2.15,2.34-3.71,4.54-3.71l0,0c2.99,0,5.17,2.77,4.53,5.69
			C552.61,162.33,542.02,171.22,529.39,171.22z"/>
		<path d="M529.39,96.56L529.39,96.56c-6.22,0-11.3,5.09-11.3,11.3v35.72c0,6.22,5.09,11.3,11.3,11.3l0,0
			c6.22,0,11.3-5.09,11.3-11.3v-35.72C540.7,101.65,535.61,96.56,529.39,96.56z"/>
	</g>
	<g class="st1">
		<g>
			<path d="M167.83,55.2c0-7.36-6.82-12.85-14-11.23c-28.4,6.38-49.62,31.74-49.62,62.07c0,0.86,0.03,1.72,0.07,2.58v61.74
				c0,7.21-5.85,13.07-13.07,13.07c-7.2,0-13.04-5.84-13.06-13.03c0-0.02-0.02-0.04-0.04-0.04l-22.28,0
				c0,19.54,15.84,35.38,35.38,35.38c19.55,0,35.39-15.84,35.39-35.38v-14.03v-1.86c7.69,6.55,16.95,11.31,27.15,13.62
				c7.21,1.63,14.08-3.82,14.08-11.21V55.2z"/>
			<path d="M78.89,150.25v-35.97c0-6.17-5.05-11.22-11.22-11.22h-0.61c-6.17,0-11.22,5.05-11.22,11.22v35.97
				c0,6.37,5.16,11.53,11.53,11.53h0C73.73,161.78,78.89,156.62,78.89,150.25z"/>
			<path d="M67.36,166.6c-6.54,0-12.03-4.5-13.54-10.57c-0.49-1.98-2.24-3.39-4.28-3.39h0c-2.84,0-4.97,2.65-4.3,5.41
				c2.43,9.97,11.41,17.37,22.13,17.37s19.7-7.4,22.13-17.37c0.67-2.76-1.47-5.41-4.3-5.41h0c-2.04,0-3.79,1.41-4.28,3.39
				C79.39,162.1,73.9,166.6,67.36,166.6z"/>
		</g>
		<g>
			<path d="M189,169.42l-0.03-0.06c-1.09-2.17-0.34-4.84,1.76-6.06c20.52-11.95,33.09-33.66,33.09-57.64
				c0-24.23-12.76-46.05-33.59-57.93c-2.11-1.2-2.88-3.87-1.81-6.05l0.03-0.06c1.19-2.43,4.19-3.31,6.54-1.96
				c10.67,6.13,19.71,14.77,26.36,25.21c7.75,12.18,11.85,26.29,11.85,40.79c0,27.32-14.31,52.06-37.66,65.69
				C193.2,172.7,190.21,171.82,189,169.42z"/>
			<path d="M181.69,154.42l-0.03-0.06c-1.08-2.16-0.33-4.78,1.73-6.04c14.86-9.07,23.93-25.07,23.93-42.7
				c0-17.82-9.21-33.91-24.3-42.93c-2.07-1.24-2.84-3.86-1.78-6.02l0.03-0.07c1.19-2.43,4.21-3.35,6.54-1.96
				c17.93,10.7,28.87,29.81,28.87,50.97c0,20.93-10.76,39.92-28.4,50.68C185.95,157.72,182.91,156.85,181.69,154.42z"/>
			<path d="M174.86,140.51l-0.03-0.06c-1.07-2.14-0.32-4.7,1.67-6.01c9.64-6.37,15.48-17.08,15.48-28.85
				c0-11.9-5.93-22.67-15.73-29.02c-2-1.3-2.77-3.85-1.72-5.99l0.03-0.06c1.21-2.47,4.31-3.39,6.63-1.91
				c12.55,8.04,20.16,21.79,20.16,36.98c0,15.02-7.49,28.7-19.85,36.77C179.2,143.86,176.09,142.97,174.86,140.51z"/>
		</g>
		<path d="M156.7,158.2"/>
		<path d="M156.7,158.2"/>
	</g>
	<g class="st1">
		<g>
			<path d="M404.04,72.7c0-18.66-20.98-29.58-36.3-18.92c-16.51,11.49-27.31,30.61-27.31,52.25c0,0.86,0.03,1.72,0.07,2.58v61.74
				c0,7.21-5.85,13.07-13.07,13.07c-7.21,0-13.06-5.86-13.06-13.07l-22.32,0c0,19.54,15.84,35.38,35.38,35.38
				c19.55,0,35.39-15.84,35.39-35.38v-14.03v-1.86c11.1,9.46,31.39,13.59,41.23,1.54V72.7z"/>
			<path d="M315.1,150.25v-35.97c0-6.17-5.05-11.22-11.22-11.22h-0.61c-6.17,0-11.22,5.05-11.22,11.22v35.97
				c0,6.37,5.16,11.53,11.53,11.53h0C309.94,161.78,315.1,156.62,315.1,150.25z"/>
			<path d="M303.57,166.6c-6.54,0-12.03-4.5-13.54-10.57c-0.49-1.98-2.24-3.39-4.28-3.39h0c-2.84,0-4.97,2.65-4.3,5.41
				c2.43,9.97,11.41,17.37,22.13,17.37s19.7-7.4,22.13-17.37c0.67-2.76-1.47-5.41-4.3-5.41l0,0c-2.04,0-3.79,1.41-4.28,3.39
				C315.6,162.1,310.11,166.6,303.57,166.6z"/>
		</g>
		<path d="M385.31,131.66c0,28.42,44.06,42.1,67.81,20.92c14.4-12.84,17.88-29.79,17.88-48.38s-3.48-35.54-17.88-48.38
			c-23.75-21.18-67.81-7.5-67.81,20.92V131.66z"/>
		<path class="st6" d="M402.62,157.55c17.23-18.88,8.9-79.8,8.9-79.8c9.7,44.31,3.47,71.8-9.68,86.28S402.62,157.55,402.62,157.55z"
			/>
		<polygon points="380.84,49.6 429.75,49.62 429.75,85.95 383.04,55.68 		"/>
	</g>
	<g class="st1">
		<g>
			<path d="M297.22,362.16c-11.22,0-20.64-7.84-23.08-18.32c-0.64-2.76,1.55-5.37,4.38-5.37l0,0c2.07,0,3.86,1.42,4.34,3.43
				c1.55,6.49,7.4,11.33,14.36,11.33c6.96,0,12.81-4.84,14.36-11.33c0.48-2.01,2.27-3.43,4.34-3.43l0,0c2.83,0,5.02,2.61,4.38,5.37
				C317.86,354.32,308.44,362.16,297.22,362.16z"/>
			<path d="M297.22,288.42L297.22,288.42c-5.62,0-10.21,4.6-10.21,10.21v37.38c0,5.62,4.6,10.21,10.21,10.21h0
				c5.62,0,10.21-4.6,10.21-10.21v-37.38C307.43,293.01,302.84,288.42,297.22,288.42z"/>
		</g>
		<path d="M462.86,270.92L462.86,270.92c0-24.39-19.77-44.16-44.16-44.16h-19.04c-34.91,0-63.2,28.29-63.2,63.2l-0.55,36.97
			l-0.46,31.26c0,7.73-6.27,14.01-14.01,14.01s-14.01-6.28-14.01-14.01h-20.42c0,18.78,15.04,34.06,33.75,34.42
			c19.31,0.38,35.11-15.79,35.11-35.1v-21.98c4.24,4.07,9.04,7.55,14.28,10.32c10.04,5.3,22.36,3.55,30.57-4.29l53.96-51.52
			C459.91,285.06,462.86,278.15,462.86,270.92z"/>
	</g>
	<g class="st1">
		<g>
			<path d="M500.61,362.16c-11.22,0-20.64-7.84-23.08-18.32c-0.64-2.76,1.55-5.37,4.38-5.37h0c2.07,0,3.86,1.42,4.34,3.43
				c1.55,6.49,7.4,11.33,14.36,11.33c6.96,0,12.81-4.84,14.36-11.33c0.48-2.01,2.27-3.43,4.34-3.43l0,0c2.83,0,5.02,2.61,4.38,5.37
				C521.25,354.32,511.83,362.16,500.61,362.16z"/>
			<path d="M500.61,288.42L500.61,288.42c-5.62,0-10.21,4.6-10.21,10.21v37.38c0,5.62,4.6,10.21,10.21,10.21l0,0
				c5.62,0,10.21-4.6,10.21-10.21v-37.38C510.82,293.01,506.23,288.42,500.61,288.42z"/>
		</g>
		<path d="M676.86,263.95L676.86,263.95c0-24.39-19.77-44.16-44.16-44.16h0c-6.61,0-12.44,3.38-15.85,8.5
			c-4.44-0.99-9.05-1.53-13.79-1.53c-34.91,0-63.2,28.29-63.2,63.2l-0.55,36.97l-0.46,31.26c0,7.73-6.27,14.01-14.01,14.01
			s-14.01-6.28-14.01-14.01H490.4c0,18.78,15.04,34.06,33.75,34.42c19.31,0.38,35.11-15.79,35.11-35.1v-21.98
			c4.67,4.49,10.04,8.27,15.92,11.16c11.45,5.63,25.22,3.37,34.44-5.44l57.76-55.14C673.44,280.32,676.86,272.32,676.86,263.95z"/>
	</g>
	<g class="st1">
		<g>
			<path d="M42.42,369.79c-11.22,0-20.64-7.84-23.08-18.32c-0.64-2.76,1.55-5.37,4.38-5.37h0c2.07,0,3.86,1.42,4.34,3.43
				c1.55,6.49,7.4,11.33,14.36,11.33c6.96,0,12.81-4.84,14.36-11.33c0.48-2.01,2.27-3.43,4.34-3.43h0c2.83,0,5.02,2.61,4.38,5.37
				C63.06,361.95,53.64,369.79,42.42,369.79z"/>
			<path d="M42.42,296.05L42.42,296.05c-5.62,0-10.21,4.6-10.21,10.21v37.38c0,5.62,4.6,10.21,10.21,10.21h0
				c5.62,0,10.21-4.6,10.21-10.21v-37.38C52.63,300.64,48.04,296.05,42.42,296.05z"/>
		</g>
		<path d="M91.14,390.01c6.14-6.22,9.94-14.76,9.94-24.19v-22.66c0.06,0.06,0.13,0.12,0.19,0.19c10.44,9.94,26.99,9.54,37.19-0.66
			l61.38-61.38c13.27-13.27,9.25-36-8-43.38c-5.32-2.28-11.18-3.54-17.34-3.54h-29.64c-34.91,0-63.2,28.29-63.2,63.2l-0.55,36.97
			l-0.46,31.26c0,7.73-6.27,14.01-14.01,14.01s-14.01-6.28-14.01-14.01H32.21c0,19.01,15.41,34.43,34.43,34.43
			c9.43,0,17.97-3.8,24.19-9.94L91.14,390.01z"/>
	</g>
</g>
<g>
	<g>
		<path d="M164.63,815.06c-54.53,0-100.34-38.1-112.19-89.08c-3.12-13.4,7.54-26.1,21.29-26.1h0c10.05,0,18.76,6.9,21.09,16.67
			c7.54,31.56,35.97,55.1,69.81,55.1c33.83,0,62.27-23.54,69.81-55.1c2.33-9.77,11.05-16.67,21.09-16.67h0
			c13.76,0,24.41,12.7,21.29,26.1C264.97,776.97,219.17,815.06,164.63,815.06z"/>
		<path d="M164.63,456.57L164.63,456.57c-27.31,0-49.65,22.34-49.65,49.65v181.72c0,27.31,22.34,49.65,49.65,49.65h0
			c27.31,0,49.65-22.34,49.65-49.65V506.22C214.28,478.91,191.94,456.57,164.63,456.57z"/>
	</g>
	<path d="M401.46,913.37c29.86-30.23,48.32-71.76,48.32-117.6l0-110.16c0.01,0,0,0,0.01-0.01c12.25,12.32,34.98,21.45,62.97,27.44
		c126.44,27.07,255.38-34.52,317.78-147.77l6.65-131.03c64.5-64.5,44.99-175.01-38.87-210.88c-25.88-11.07,38.37-66.55,8.44-66.55
		h-144.1c-169.72,0-307.25,137.53-307.25,307.25l-2.67,179.73l-2.24,151.97c0,37.58-30.48,68.11-68.11,68.11
		s-68.11-30.53-68.11-68.11h-99.27c0,92.42,74.92,167.38,167.38,167.38c45.84,0,87.36-18.45,117.6-48.32L401.46,913.37z"/>
	<path d="M949.96,223.36c-34.01-40.48-72.66-74.74-111.68-94.61c-72.27-36.79-157.89,16.13-157.89,97.23v212.08v212.08
		c0,81.09,85.62,134.02,157.89,97.23c39.02-19.86,77.67-54.12,111.68-94.61c0.83-0.99,1.66-1.99,2.48-2.98
		c100.89-122.88,100.89-300.57,0-423.44C951.62,225.35,950.8,224.36,949.96,223.36z"/>
	<circle class="st6" cx="508.03" cy="488.26" r="36.42"/>
	<circle cx="508.03" cy="470.93" r="36.42"/>
</g>
</svg>
